HIERARCHY
ROOT Hips
{
 OFFSET 0.000000 0.000000 0.000000
 CHANNELS 6 Xposition Yposition Zposition Yrotation Xrotation Zrotation
 JOINT Chest
 {
  OFFSET 0.000000 9.910571 -0.011835
  CHANNELS 3 Yrotation Xrotation Zrotation
  JOINT Chest2
  {
   OFFSET 0.000000 10.789473 0.021497
   CHANNELS 3 Yrotation Xrotation Zrotation
   JOINT Chest3
   {
    OFFSET 0.000000 9.748205 0.000000
    CHANNELS 3 Yrotation Xrotation Zrotation
    JOINT Chest4
    {
     OFFSET 0.000000 9.748205 0.000000
     CHANNELS 3 Yrotation Xrotation Zrotation
     JOINT Neck
     {
      OFFSET 0.000000 13.998479 0.000000
      CHANNELS 3 Yrotation Xrotation Zrotation
      JOINT Head
      {
       OFFSET 0.000000 9.082285 0.051121
       CHANNELS 3 Yrotation Xrotation Zrotation
       End Site
       {
        OFFSET 0.000000 17.246134 0.026702
       }
      }
     }
     JOINT RightCollar
     {
      OFFSET -3.284495 7.824262 0.000000
      CHANNELS 3 Yrotation Xrotation Zrotation
      JOINT RightShoulder
      {
       OFFSET -15.534540 0.000000 0.000000
       CHANNELS 3 Yrotation Xrotation Zrotation
       JOINT RightElbow
       {
        OFFSET 0.000000 -28.251216 0.000000
        CHANNELS 3 Yrotation Xrotation Zrotation
        JOINT RightWrist
        {
         OFFSET 0.000000 -23.418114 0.012537
         CHANNELS 3 Yrotation Xrotation Zrotation
         End Site
         {
          OFFSET 0.000000 -17.723959 0.000000
         }
        }
       }
      }
     }
     JOINT LeftCollar
     {
      OFFSET 3.284495 7.824262 0.000000
      CHANNELS 3 Yrotation Xrotation Zrotation
      JOINT LeftShoulder
      {
       OFFSET 15.534540 0.000000 0.000000
       CHANNELS 3 Yrotation Xrotation Zrotation
       JOINT LeftElbow
       {
        OFFSET 0.000000 -28.251216 0.000000
        CHANNELS 3 Yrotation Xrotation Zrotation
        JOINT LeftWrist
        {
         OFFSET 0.000000 -23.418114 0.012537
         CHANNELS 3 Yrotation Xrotation Zrotation
         End Site
         {
          OFFSET 0.000000 -17.723959 0.000000
         }
        }
       }
      }
     }
    }
   }
  }
 }
 JOINT RightHip
 {
  OFFSET -8.142657 0.057990 0.005917
  CHANNELS 3 Yrotation Xrotation Zrotation
  JOINT RightKnee
  {
   OFFSET 0.000000 -49.716894 0.008478
   CHANNELS 3 Yrotation Xrotation Zrotation
   JOINT RightAnkle
   {
    OFFSET 0.000000 -43.994153 0.004166
    CHANNELS 3 Yrotation Xrotation Zrotation
    JOINT RightToe
    {
     OFFSET 0.000000 -7.619154 17.822051
     CHANNELS 3 Yrotation Xrotation Zrotation
     End Site
     {
      OFFSET 0.000000 -1.595627 7.159905
     }
    }
   }
  }
 }
 JOINT LeftHip
 {
  OFFSET 8.142657 0.057990 0.005917
  CHANNELS 3 Yrotation Xrotation Zrotation
  JOINT LeftKnee
  {
   OFFSET 0.000000 -49.716894 0.008478
   CHANNELS 3 Yrotation Xrotation Zrotation
   JOINT LeftAnkle
   {
    OFFSET 0.000000 -43.994153 0.004166
    CHANNELS 3 Yrotation Xrotation Zrotation
    JOINT LeftToe
    {
     OFFSET 0.000000 -7.619154 17.822051
     CHANNELS 3 Yrotation Xrotation Zrotation
     End Site
     {
      OFFSET 0.000000 -1.595627 7.159905
     }
    }
   }
  }
 }
}
MOTION
Frames: 5
Frame Time: 0.008333
461.945371 102.821110 413.036299 -46.240289 -15.083410 3.100744 -0.426891 6.011001 -0.119601 -0.181876 2.684411 -0.073214 -0.181876 2.684411 -0.073214 -0.136060 2.013330 -0.054101 -1.965149 17.668887 -1.674105 -3.056333 -3.383227 -2.420758 -1.965257 2.391051 7.844233 -9.744086 -6.471929 -11.200415 17.621116 -6.326977 -5.082456 14.277627 -8.345580 -12.612946 4.739002 3.625631 -9.262366 11.976047 -7.092616 11.038678 6.517977 -5.065612 -4.368654 -26.198763 -3.664335 23.363928 -3.399128 23.021456 -6.915057 -5.949386 -2.736552 2.578485 -2.818476 -3.965486 0.884489 0.014710 -0.002502 -0.104024 15.398820 16.576593 6.484364 0.306693 15.322709 0.770860 4.790350 -11.462518 -3.446021 0.010439 -1.278270 -0.564765
461.872630 102.835104 413.116894 -46.225931 -14.961091 3.145480 -0.421182 5.932618 -0.144119 -0.177616 2.640250 -0.080886 -0.177616 2.640250 -0.080886 -0.132839 1.980211 -0.059886 -1.904982 17.513788 -1.662909 -2.948367 -3.670948 -2.418817 -1.973587 2.390880 7.835465 -9.539145 -6.552468 -11.233674 17.384760 -6.384692 -5.128858 14.214698 -8.397107 -12.793575 4.792353 3.536993 -9.272015 12.059772 -6.845303 10.731101 6.176870 -5.264357 -4.416442 -26.196909 -3.568750 22.426227 -3.528884 22.957604 -6.987631 -5.938594 -2.742531 2.557221 -2.888611 -4.017934 0.914692 0.041295 -0.007297 -0.076302 15.704663 16.467488 6.491974 0.510646 15.384769 0.781821 4.596541 -11.426034 -3.317844 0.000034 -1.130817 -0.520147
461.787503 102.848599 413.199052 -46.182818 -14.832235 3.155272 -0.434052 5.843198 -0.140633 -0.178221 2.597494 -0.083987 -0.178221 2.597494 -0.083987 -0.133286 1.948145 -0.062222 -1.847834 17.368171 -1.654268 -2.845033 -3.941077 -2.420901 -1.975185 2.378237 7.809680 -9.323910 -6.629992 -11.282815 17.142773 -6.449796 -5.179100 14.149287 -8.461315 -12.968516 4.839616 3.467015 -9.307517 12.111791 -6.614066 10.416637 5.754000 -5.480610 -4.447482 -26.191339 -3.407968 21.633553 -3.713256 22.892183 -7.057229 -5.869832 -2.753995 2.549438 -2.793543 -4.069968 0.932796 0.065803 -0.019823 -0.054909 15.879495 16.428608 6.502215 0.673764 15.264706 0.755096 4.510588 -11.369778 -3.208610 -0.012537 -0.947252 -0.465188
461.695500 102.858092 413.283946 -46.130732 -14.713260 3.160668 -0.450306 5.755126 -0.134404 -0.181230 2.558548 -0.085437 -0.181230 2.558548 -0.085437 -0.135542 1.918937 -0.063308 -1.790242 17.228503 -1.638570 -2.743235 -4.200079 -2.410377 -1.973591 2.340974 7.785272 -9.105877 -6.696514 -11.357082 16.894107 -6.491554 -5.224576 14.094357 -8.530494 -13.131976 4.880032 3.410155 -9.349749 12.136545 -6.409012 10.120717 4.270988 -5.746086 -3.885816 -25.366531 -3.473667 20.327116 -3.929188 22.834254 -7.122976 -5.743720 -2.758477 2.531005 -2.775636 -4.133973 0.958271 0.083053 -0.030249 -0.040402 15.971380 16.491174 6.487943 0.719983 14.936663 0.704381 4.445965 -11.376441 -3.235092 -0.022315 -0.666744 -0.289235
461.599642 102.862566 413.369083 -46.069413 -14.600214 3.157591 -0.471406 5.668532 -0.123400 -0.188492 2.520991 -0.082048 -0.188492 2.520991 -0.082048 -0.141008 1.890769 -0.060748 -1.739500 17.096862 -1.625223 -2.653256 -4.444212 -2.402089 -1.960006 2.286715 7.758087 -8.897339 -6.751135 -11.456786 16.647583 -6.537931 -5.272962 14.042754 -8.599413 -13.300557 4.908021 3.383663 -9.410878 12.149023 -6.235336 9.806746 2.745043 -6.102791 -3.178714 -24.825360 -3.500084 18.355261 -4.185927 22.781339 -7.201022 -5.562103 -2.764883 2.523991 -2.766735 -4.202763 0.977705 0.092167 -0.038643 -0.029214 15.968788 16.694430 6.412797 0.679143 14.302144 0.667638 4.341028 -11.425730 -3.419363 -0.031841 -0.283503 0.015089
